<?xml version="1.0" encoding="UTF-8" standalone="no" ?>
<!DOCTYPE svg PUBLIC "-//W3C//DTD SVG 1.1//EN" "http://www.w3.org/Graphics/SVG/1.1/DTD/svg11.dtd">
<svg xmlns="http://www.w3.org/2000/svg" xmlns:xlink="http://www.w3.org/1999/xlink" version="1.1" width="400" height="400" viewBox="0 0 400 400" xml:space="preserve">
<desc>Created with Fabric.js 3.6.2</desc>
<defs>
</defs>
<g transform="matrix(1.78 0 0 1.78 200 200)" id="XMLID_11_"  >
<circle style="stroke: none; stroke-width: 1; stroke-dasharray: none; stroke-linecap: butt; stroke-dashoffset: 0; stroke-linejoin: miter; stroke-miterlimit: 4; fill: rgb(77,118,161); fill-rule: nonzero; opacity: 1;"  cx="0" cy="0" r="56.098" />
</g>
<g transform="matrix(1.78 0 0 1.78 197.63 206.72)" id="Capa_1"  >
<path style="stroke: none; stroke-width: 1; stroke-dasharray: none; stroke-linecap: butt; stroke-dashoffset: 0; stroke-linejoin: miter; stroke-miterlimit: 4; fill: rgb(255,255,255); fill-rule: evenodd; opacity: 1;"  transform=" translate(-54.77, -59.87)" d="M 53.979 80.702 h 4.403 c 0 0 1.33 -0.146 2.009 -0.878 c 0.625 -0.672 0.605 -1.934 0.605 -1.934 s -0.086 -5.908 2.656 -6.778 c 2.703 -0.857 6.174 5.71 9.853 8.235 c 2.782 1.911 4.896 1.492 4.896 1.492 l 9.837 -0.137 c 0 0 5.146 -0.317 2.706 -4.363 c -0.2 -0.331 -1.421 -2.993 -7.314 -8.463 c -6.168 -5.725 -5.342 -4.799 2.088 -14.702 c 4.525 -6.031 6.334 -9.713 5.769 -11.29 c -0.539 -1.502 -3.867 -1.105 -3.867 -1.105 l -11.076 0.069 c 0 0 -0.821 -0.112 -1.43 0.252 c -0.595 0.357 -0.978 1.189 -0.978 1.189 s -1.753 4.667 -4.091 8.636 c -4.932 8.375 -6.904 8.817 -7.71 8.297 c -1.875 -1.212 -1.407 -4.869 -1.407 -7.467 c 0 -8.116 1.231 -11.5 -2.397 -12.376 c -1.204 -0.291 -2.09 -0.483 -5.169 -0.514 c -3.952 -0.041 -7.297 0.012 -9.191 0.94 c -1.26 0.617 -2.232 1.992 -1.64 2.071 c 0.732 0.098 2.39 0.447 3.269 1.644 c 1.135 1.544 1.095 5.012 1.095 5.012 s 0.652 9.554 -1.523 10.741 c -1.493 0.814 -3.541 -0.848 -7.938 -8.446 c -2.253 -3.892 -3.954 -8.194 -3.954 -8.194 s -0.328 -0.804 -0.913 -1.234 c -0.71 -0.521 -1.702 -0.687 -1.702 -0.687 l -10.525 0.069 c 0 0 -1.58 0.044 -2.16 0.731 c -0.516 0.611 -0.041 1.875 -0.041 1.875 s 8.24 19.278 17.57 28.993 C 44.264 81.287 53.979 80.702 53.979 80.702 L 53.979 80.702 z" stroke-linecap="round" />
</g>
</svg>